<svg xmlns="http://www.w3.org/2000/svg" viewBox="0 0 48 48" id="network-connection"><g data-name="Your Icons"><path fill="#020202" d="M34.13 11a4 4 0 1 0 0-2H30a1 1 0 0 0-.71.29l-3.8 3.81h0A10.41 10.41 0 0 0 24 13 11 11 0 0 0 13.05 23H11V20a.79.79 0 0 0 0-.13h0a4 4 0 1 0-2 0H9A.79.79 0 0 0 9 20v4a1 1 0 0 0 1 1h3.05a10.95 10.95 0 0 0 7.2 9.34L17.59 37H13.87a4 4 0 1 0 0 2H18a1 1 0 0 0 .71-.29l3.81-3.81h0A10.41 10.41 0 0 0 24 35a11 11 0 0 0 10.81-9H37v2.13a4 4 0 1 0 2 0V25a1 1 0 0 0-1-1H35a11 11 0 0 0-7.24-10.34h0L30.41 11zM38 8a2 2 0 1 1-2 2A2 2 0 0 1 38 8zM8 16a2 2 0 1 1 2 2A2 2 0 0 1 8 16zm2 24a2 2 0 1 1 2-2A2 2 0 0 1 10 40zm30-8a2 2 0 1 1-2-2A2 2 0 0 1 40 32zm-7-8a9 9 0 0 1-3 6.7V30a6 6 0 0 0-1.76-4.25 5.64 5.64 0 0 0-1.34-1 4 4 0 1 0-5.8 0A6 6 0 0 0 18 30v.7A9 9 0 1 1 33 24zM7 8h6a1 1 0 0 0 0-2H7A1 1 0 0 0 7 8z"></path><path fill="#020202" d="M7,11h6a1,1,0,0,0,0-2H7a1,1,0,0,0,0,2Z"></path><circle cx="25" cy="39" r="1" fill="#020202"></circle><circle cx="29" cy="39" r="1" fill="#020202"></circle><circle cx="33" cy="39" r="1" fill="#020202"></circle></g></svg>